<svg width="24" height="24" viewBox="0 0 24 24" fill="none" xmlns="http://www.w3.org/2000/svg">
<path d="M21 17.0016L15.5016 16.0031C15 15 15 14.5641 15 14.0016C15.5016 13.5 16.5 13.0031 16.5 12.5016C17.0016 11.0016 17.0016 10.0031 17.0016 10.0031C17.2594 9.62812 18 9.00469 18 8.00156C18 6.99844 17.0016 6 17.0016 5.50313C17.0016 1.5 14.9625 0 12 0C9.16406 0 6.99844 1.5 6.99844 5.49844C6.99844 6 6 6.99844 6 7.99688C6 8.99531 6.7125 9.65625 6.99844 9.99844C6.99844 9.99844 6.99844 10.9969 7.5 12.4969C7.5 12.9984 8.49844 13.4953 9 13.9969C9 14.4984 9 14.9953 8.49844 15.9984L3 17.0016C0.998437 17.4984 0 21 0 24H24C24 21 23.0016 17.4984 21 17.0016Z" fill="white"/>
</svg>
