<svg width="43" height="41" viewBox="0 0 43 41" fill="none" xmlns="http://www.w3.org/2000/svg">
<path fill-rule="evenodd" clip-rule="evenodd" d="M33.0064 1.70534e-08C31.7296 0.000102747 30.4714 0.28857 29.3366 0.841333C28.2018 1.3941 27.2235 2.19513 26.4832 3.1776C25.7429 4.16007 25.2622 5.29549 25.081 6.48912C24.8998 7.68276 25.0236 8.9 25.4419 10.0393C25.8601 11.1786 26.5608 12.2069 27.4855 13.0384C28.4102 13.8699 29.532 14.4806 30.7574 14.8194C31.9828 15.1582 33.2762 15.2153 34.5297 14.986C35.7832 14.7567 36.9605 14.2477 37.9633 13.5013L41.4036 16.7503C41.5812 16.9123 41.8192 17.002 42.0662 17C42.3132 16.9979 42.5494 16.9044 42.7241 16.7394C42.8987 16.5745 42.9978 16.3513 43 16.1181C43.0021 15.8848 42.9072 15.6601 42.7356 15.4923L39.2953 12.2433C40.226 11.1282 40.8055 9.78825 40.9675 8.37667C41.1295 6.96509 40.8674 5.53896 40.2112 4.26149C39.555 2.98402 38.5312 1.90683 37.2571 1.15319C35.9829 0.399546 34.5099 -9.53197e-05 33.0064 1.70534e-08ZM26.8833 7.562C26.8833 6.02833 27.5285 4.55747 28.6768 3.47301C29.8251 2.38854 31.3825 1.77929 33.0064 1.77929C34.6304 1.77929 36.1878 2.38854 37.3361 3.47301C38.4844 4.55747 39.1295 6.02833 39.1295 7.562C39.1295 9.09566 38.4844 10.5665 37.3361 11.651C36.1878 12.7355 34.6304 13.3447 33.0064 13.3447C31.3825 13.3447 29.8251 12.7355 28.6768 11.651C27.5285 10.5665 26.8833 9.09566 26.8833 7.562Z" fill="white"/>
<path d="M2.72727 16.4545V38.2727H27.2727V41H2.72727C2.00396 41 1.31026 40.7127 0.7988 40.2012C0.287337 39.6897 0 38.996 0 38.2727V16.4545H2.72727ZM20.4545 20.5455H27.9545L20.4545 13.0455V20.5455ZM8.18182 11H21.8182L30 19.1818V32.8182C30 33.5415 29.7127 34.2352 29.2012 34.7467C28.6897 35.2581 27.996 35.5455 27.2727 35.5455H8.18182C7.4585 35.5455 6.76481 35.2581 6.25335 34.7467C5.74188 34.2352 5.45455 33.5415 5.45455 32.8182V13.7273C5.45455 13.004 5.74188 12.3103 6.25335 11.7988C6.76481 11.2873 7.4585 11 8.18182 11ZM8.18182 13.7273V32.8182H27.2727V23.2727H17.7273V13.7273H8.18182Z" fill="white"/>
</svg>
