<svg width="39" height="40" viewBox="0 0 39 40" fill="none" xmlns="http://www.w3.org/2000/svg">
<path d="M38.0439 27.8867C37.9153 27.7383 37.7564 27.6193 37.5778 27.5378C37.3993 27.4562 37.2053 27.4139 37.009 27.4138H34.2676V24.6724C34.2676 23.1619 33.0381 21.931 31.5262 21.931H26.0435C24.5316 21.931 23.3021 23.1619 23.3021 24.6724V27.4138H20.5607C20.3643 27.414 20.1703 27.4563 19.9917 27.538C19.813 27.6196 19.654 27.7387 19.5254 27.8871C19.3967 28.0355 19.3015 28.2098 19.246 28.3982C19.1905 28.5865 19.1761 28.7847 19.2037 28.9791L20.5744 38.5739C20.6213 38.9004 20.7843 39.1991 21.0335 39.4151C21.2828 39.6311 21.6016 39.75 21.9314 39.75H35.6383C35.9681 39.75 36.2869 39.6311 36.5362 39.4151C36.7855 39.1991 36.9485 38.9004 36.9953 38.5739L38.366 28.9791C38.3936 28.7846 38.3792 28.5863 38.3236 28.3979C38.2681 28.2094 38.1727 28.0351 38.0439 27.8867ZM26.0435 24.6724H31.5262V27.4138H26.0435V24.6724ZM34.4499 37.0086H23.1198L22.1411 30.1551H35.4286L34.4499 37.0086ZM10.9659 26.0431H13.7073V39.75H10.9659V26.0431Z" fill="white"/>
<path d="M20.2588 23.1304L17.6463 19.8627L15.6697 14.9213C15.3667 14.1566 14.8403 13.5009 14.1591 13.0398C13.4779 12.5786 12.6736 12.3335 11.851 12.3362H4.11207C1.84495 12.3362 0 14.1812 0 16.4483V26.0431C0 27.555 1.22951 28.7845 2.74138 28.7845H4.11207V39.75H6.85345V26.0431H2.74138V16.4483C2.74138 16.0847 2.88579 15.7361 3.14285 15.4791C3.3999 15.222 3.74854 15.0776 4.11207 15.0776H11.851C12.4143 15.0776 12.9146 15.4161 13.123 15.9397L15.3778 21.417L18.1191 24.8438L20.2588 23.1304ZM2.74138 5.48276C2.74138 2.45902 5.2004 0 8.22414 0C11.2479 0 13.7069 2.45902 13.7069 5.48276C13.7069 8.5065 11.2479 10.9655 8.22414 10.9655C5.2004 10.9655 2.74138 8.5065 2.74138 5.48276ZM5.48276 5.48276C5.48276 6.99463 6.71227 8.22414 8.22414 8.22414C9.73601 8.22414 10.9655 6.99463 10.9655 5.48276C10.9655 3.97089 9.73601 2.74138 8.22414 2.74138C6.71227 2.74138 5.48276 3.97089 5.48276 5.48276Z" fill="white"/>
</svg>
