<svg width="14" height="16" viewBox="0 0 14 16" fill="none" xmlns="http://www.w3.org/2000/svg">
<path d="M2.61537 16C2.16794 16 1.78685 15.8403 1.4721 15.521C1.15737 15.2016 1 14.815 1 14.361V1.79514H0V0.780507H4V0H10V0.780507H14V1.79514H13V14.361C13 14.828 12.8458 15.2179 12.5375 15.5307C12.2292 15.8436 11.8449 16 11.3846 16H2.61537ZM12 1.79514H2V14.361C2 14.5431 2.05769 14.6927 2.17308 14.8098C2.28846 14.9268 2.43589 14.9854 2.61537 14.9854H11.3846C11.5385 14.9854 11.6795 14.9203 11.8077 14.7903C11.9359 14.6602 12 14.5171 12 14.361V1.79514ZM4.80768 12.9561H5.8077V3.82441H4.80768V12.9561ZM8.1923 12.9561H9.19232V3.82441H8.1923V12.9561Z" fill="#52356F"/>
</svg>
