<svg width="25" height="25" viewBox="0 0 25 25" fill="none" xmlns="http://www.w3.org/2000/svg">
<path d="M22.0588 0L25 2.94118L2.94118 25L0 22.0588L22.0588 0ZM5.14706 0.735294C7.58823 0.735294 9.55882 2.70588 9.55882 5.14706C9.55882 7.58823 7.58823 9.55882 5.14706 9.55882C2.70588 9.55882 0.735294 7.58823 0.735294 5.14706C0.735294 2.70588 2.70588 0.735294 5.14706 0.735294ZM19.8529 15.4412C22.2941 15.4412 24.2647 17.4118 24.2647 19.8529C24.2647 22.2941 22.2941 24.2647 19.8529 24.2647C17.4118 24.2647 15.4412 22.2941 15.4412 19.8529C15.4412 17.4118 17.4118 15.4412 19.8529 15.4412ZM5.14706 3.67647C4.33824 3.67647 3.67647 4.33824 3.67647 5.14706C3.67647 5.95588 4.33824 6.61765 5.14706 6.61765C5.95588 6.61765 6.61765 5.95588 6.61765 5.14706C6.61765 4.33824 5.95588 3.67647 5.14706 3.67647ZM19.8529 18.3824C19.0441 18.3824 18.3824 19.0441 18.3824 19.8529C18.3824 20.6618 19.0441 21.3235 19.8529 21.3235C20.6618 21.3235 21.3235 20.6618 21.3235 19.8529C21.3235 19.0441 20.6618 18.3824 19.8529 18.3824Z" fill="white"/>
</svg>
