<svg width="20" height="20" viewBox="0 0 20 20" fill="none" xmlns="http://www.w3.org/2000/svg">
<path d="M9.375 15.625H10.625V10.625H15.625V9.375H10.625V4.375H9.375V9.375H4.375V10.625H9.375V15.625ZM2.01922 20C1.44391 20 0.963542 19.8073 0.578125 19.4219C0.192708 19.0365 0 18.5561 0 17.9808V2.01922C0 1.44391 0.192708 0.963542 0.578125 0.578125C0.963542 0.192708 1.44391 0 2.01922 0H17.9808C18.5561 0 19.0365 0.192708 19.4219 0.578125C19.8073 0.963542 20 1.44391 20 2.01922V17.9808C20 18.5561 19.8073 19.0365 19.4219 19.4219C19.0365 19.8073 18.5561 20 17.9808 20H2.01922Z" fill="#52356F"/>
</svg>
