<svg width="54" height="54" viewBox="0 0 54 54" fill="none" xmlns="http://www.w3.org/2000/svg">
<path d="M33.2661 42.9113C33.2664 44.0303 32.8438 45.1081 32.0829 45.9286C31.322 46.7492 30.2791 47.2518 29.1632 47.3357L28.8306 47.3468H24.3951C23.2761 47.3471 22.1983 46.9245 21.3778 46.1636C20.5572 45.4027 20.0546 44.3598 19.9707 43.2439L19.9596 42.9113H33.2661ZM26.6128 5.20967C30.638 5.2096 34.5058 6.77294 37.4005 9.56992C40.2951 12.3669 41.9902 16.1788 42.1282 20.2016L42.137 20.7339V29.0814L46.1778 37.1629C46.3541 37.5155 46.4424 37.9056 46.435 38.2998C46.4276 38.694 46.3247 39.0805 46.1353 39.4263C45.9459 39.772 45.6754 40.0667 45.3472 40.2851C45.0189 40.5035 44.6427 40.6391 44.2505 40.6802L43.9955 40.6935H9.23019C8.83579 40.6937 8.44725 40.5982 8.09785 40.4152C7.74846 40.2323 7.44863 39.9673 7.22405 39.6431C6.99948 39.3189 6.85686 38.9451 6.80842 38.5537C6.75998 38.1623 6.80716 37.7649 6.94591 37.3958L7.04793 37.1629L11.0887 29.0814V20.7339C11.0887 16.6166 12.7242 12.668 15.6356 9.7566C18.5469 6.84525 22.4956 5.20967 26.6128 5.20967Z" fill="white"/>
</svg>
