<svg width="37" height="32" viewBox="0 0 37 32" fill="none" xmlns="http://www.w3.org/2000/svg">
<path d="M25.9399 22.9726C27.5799 22.0523 27.3674 18.5062 25.4668 15.0463C24.6515 13.5566 23.649 12.3503 22.6466 11.5069C21.4479 12.405 19.9959 12.8921 18.5031 12.8968C17.0081 12.8934 15.5536 12.4063 14.353 11.5069C13.3506 12.3503 12.3508 13.558 11.5328 15.0463C9.63085 18.5048 9.42101 22.0523 11.065 22.9726C11.7975 23.3936 12.57 23.0779 13.3666 22.3033C13.2175 23.1378 13.1428 23.9841 13.1434 24.8321C13.1434 28.7966 14.6671 32 16.5424 32C17.6731 32 18.2331 30.8328 18.5018 29.0475C18.7691 30.8206 19.3305 32 20.4532 32C22.3204 32 23.8562 28.7952 23.8562 24.8321C23.8562 23.9415 23.7733 23.0914 23.6316 22.3047C24.4336 23.0806 25.2035 23.4017 25.9386 22.9753L25.9399 22.9726ZM18.5005 11.5474C19.2588 11.5588 20.0118 11.4179 20.7157 11.1327C21.4196 10.8476 22.0602 10.424 22.6004 9.88652C23.1406 9.34906 23.5695 8.70851 23.8622 8.00213C24.1548 7.29576 24.3054 6.53767 24.3051 5.77199C24.3049 5.00631 24.1538 4.24833 23.8606 3.54216C23.5674 2.83599 23.1381 2.19574 22.5975 1.65867C22.057 1.1216 21.416 0.698428 20.712 0.413791C20.0079 0.129155 19.2548 -0.0112644 18.4965 0.000705681C16.9949 0.024407 15.5629 0.643367 14.5095 1.72393C13.4562 2.8045 12.8661 4.25996 12.8666 5.77604C12.8671 7.29212 13.4583 8.74716 14.5124 9.82698C15.5664 10.9068 16.9989 11.5247 18.5005 11.5474ZM29.9871 15.2096C31.2085 15.1736 32.3679 14.6584 33.2192 13.7735C34.0705 12.8885 34.5467 11.7035 34.5467 10.4699C34.5467 9.2363 34.0705 8.05127 33.2192 7.16633C32.3679 6.28139 31.2085 5.76623 29.9871 5.73019C28.7416 5.73037 27.5472 6.23004 26.6667 7.11929C25.7861 8.00854 25.2915 9.21452 25.2917 10.4719C25.2919 11.7293 25.7868 12.9352 26.6676 13.8242C27.5484 14.7132 28.743 15.2125 29.9885 15.2123L29.9871 15.2096ZM35.7077 18.0838C35.0368 16.8586 34.2161 15.8681 33.3927 15.1759C32.4079 15.9126 31.2155 16.3121 29.9898 16.3161C28.9793 16.3161 28.0384 16.0368 27.215 15.5739C27.878 17.0488 28.2883 18.5426 28.3645 19.8785C28.4901 21.9241 27.8566 23.4409 26.5895 24.1493C26.3179 24.2999 26.0227 24.4022 25.7167 24.4515C25.6405 24.9805 25.5884 25.5311 25.5884 26.1113C25.5884 29.3674 26.8381 31.9973 28.3792 31.9973C29.3068 31.9973 29.7693 31.0392 29.9885 29.5738C30.2063 31.0311 30.6674 31.9973 31.5924 31.9973C33.1228 31.9973 34.3858 29.366 34.3858 26.114C34.3858 25.3813 34.315 24.6836 34.1987 24.0359C34.8563 24.6742 35.4899 24.9373 36.094 24.5865C37.4399 23.8308 37.2662 20.9189 35.7064 18.0825L35.7077 18.0838ZM7.01381 15.2096C7.9421 15.2091 8.84939 14.9307 9.62098 14.4096C10.3926 13.8886 10.9938 13.1483 11.3487 12.2823C11.7036 11.4163 11.7961 10.4635 11.6147 9.54438C11.4333 8.62528 10.986 7.78111 10.3294 7.11862C9.67283 6.45612 8.83642 6.00504 7.92593 5.8224C7.01543 5.63976 6.07174 5.73377 5.21416 6.09254C4.35658 6.4513 3.62362 7.05872 3.10794 7.83799C2.59227 8.61726 2.31703 9.5334 2.31703 10.4706C2.31738 11.7281 2.81234 12.9339 3.69308 13.8231C4.57382 14.7123 5.76825 15.212 7.01381 15.2123V15.2096ZM10.4021 24.1452C8.27421 22.951 8.07907 19.39 9.79258 15.5712C8.94562 16.0567 7.98907 16.3137 7.01514 16.3175C5.73736 16.3175 4.56651 15.8857 3.60684 15.1759C2.78484 15.8668 1.96551 16.8572 1.29187 18.0811C-0.267936 20.9202 -0.439019 23.8322 0.908264 24.5851C1.50973 24.9333 2.14461 24.6728 2.7982 24.0373C2.67815 24.7224 2.61777 25.4169 2.61776 26.1126C2.61776 29.3673 3.86747 31.996 5.40856 31.996C6.33616 31.996 6.79862 31.0379 7.01782 29.5738C7.23835 31.0311 7.69948 31.9973 8.62173 31.9973C10.1548 31.9973 11.4152 29.366 11.4152 26.114C11.4152 25.5297 11.3617 24.9778 11.2856 24.4488C10.9762 24.3996 10.6777 24.2964 10.4034 24.1439L10.4021 24.1452Z" fill="white"/>
</svg>
