<svg width="34" height="33" viewBox="0 0 34 33" fill="none" xmlns="http://www.w3.org/2000/svg">
<path fill-rule="evenodd" clip-rule="evenodd" d="M14.8737 3.27465e-08C12.5018 0.000197298 10.1642 0.554122 8.05618 1.61556C5.94812 2.677 4.13065 4.21517 2.7554 6.10175C1.38015 7.98832 0.487002 10.1686 0.150474 12.4607C-0.186054 14.7527 0.043796 17.0901 0.820847 19.2778C1.5979 21.4655 2.89962 23.4401 4.6174 25.0369C6.33518 26.6336 8.41922 27.8062 10.6956 28.4567C12.972 29.1073 15.3748 29.217 17.7035 28.7767C20.0322 28.3364 22.2193 27.3589 24.0822 25.9257L30.4732 32.1645C30.8033 32.4757 31.2453 32.6479 31.7042 32.644C32.163 32.6401 32.602 32.4604 32.9264 32.1437C33.2509 31.8269 33.4349 31.3985 33.4389 30.9506C33.4429 30.5026 33.2665 30.0711 32.9477 29.7489L26.5567 23.5101C28.2857 21.3689 29.3623 18.7958 29.6632 16.0852C29.964 13.3746 29.4771 10.6361 28.2581 8.18308C27.0391 5.73003 25.1373 3.66157 22.7703 2.2144C20.4032 0.767224 17.6667 -0.000183037 14.8737 3.27465e-08ZM3.49873 14.5208C3.49873 11.5758 4.69717 8.75144 6.83039 6.669C8.96362 4.58657 11.8569 3.41667 14.8737 3.41667C17.8906 3.41667 20.7838 4.58657 22.9171 6.669C25.0503 8.75144 26.2487 11.5758 26.2487 14.5208C26.2487 17.4658 25.0503 20.2902 22.9171 22.3727C20.7838 24.4551 17.8906 25.625 14.8737 25.625C11.8569 25.625 8.96362 24.4551 6.83039 22.3727C4.69717 20.2902 3.49873 17.4658 3.49873 14.5208Z" fill="white"/>
</svg>
